<?xml version="1.0" encoding="utf-8"?>
<!-- Generator: Adobe Illustrator 18.1.1, SVG Export Plug-In . SVG Version: 6.00 Build 0)  -->
<svg version="1.1" id="Layer_1" xmlns="http://www.w3.org/2000/svg" xmlns:xlink="http://www.w3.org/1999/xlink" x="0px" y="0px"
	 viewBox="0 0 142.6 155.6" enable-background="new 0 0 142.6 155.6" xml:space="preserve">
<g>
	<path fill-rule="evenodd" fill="#a6a9be"
  clip-rule="evenodd" d="M17.7,15.2c1.4-4.9,2-9.3,4-12.8c1-1.7,4.9-2.2,7.5-2.2c8-0.2,9.8,2.4,10.7,14.8
		c3.8,0,7.5,0,11.3,0c1.3-4.3-1.6-9.6,2.8-12.7c2-1.4,4.8-1.8,7.3-2.1c3.8-0.4,7.7,0.5,9.4,4.1c1.4,3.1,1.3,6.9,1.9,10.7
		c4.3,0,8.9,0,13.6,0c1.2-4.4-1.6-10.1,3.4-13.1c2.4-1.4,5.7-1.8,8.6-1.7c6.8,0.2,8.4,3,9.2,14.7c0.5,0.1,1,0.2,1.6,0.3
		c7.7,1.1,11.7,5.6,11.7,13.4c0,22.6,0,45.2,0,67.8c0,6.2-0.1,12.5,0.1,18.7c0.1,3.1-0.6,5.4-2.9,7.6c-3.8,3.6-7.2,7.6-11,11.2
		c-1,1-2.8,1.8-4.2,1.8c-29.9,0.1-59.7,0.1-89.6,0.1c-8,0-13-5.2-13-13.3c0-31.5,0-63,0-94.4c0-7.6,4.9-12.6,12.6-13
		C14.6,15.1,16.5,15.2,17.7,15.2z M91.8,26.5c-1.8,0-3.4,0-5.1,0c-0.2-2.1-0.4-3.9-0.5-5.7c-10,0-19.5,0-29.2,0
		c-0.1,2.1-0.2,3.9-0.4,5.7c-1.8,0-3.4,0-5,0c-0.1-2.1-0.3-3.9-0.4-5.8c-9,0-17.7,0-26.6,0c-0.1,2-0.3,3.8-0.4,5.8
		c-1.8,0-3.3,0-5.1,0c-0.1-2-0.3-3.8-0.4-5.6C9,19.4,5.3,21.9,5.3,30c-0.1,30.4,0,60.7,0,91.1c0,7.1,2.4,9.4,9.5,9.5
		c26.4,0,52.7,0,79.1,0c1.2,0,2.4-0.1,3.5-0.2c0.1-13,3.7-16.9,17.8-18c0-6.8,0-13.6,0-20.5c0-21,0-42,0-63c0-3.7-0.9-7.3-4.9-7.7
		c-6-0.6-12.1-0.2-18.2-0.2C92,22.9,91.9,24.6,91.8,26.5z M35.1,15c-1-3.4-1.1-6.8-2.8-8.8c-1-1.2-6-1-6.6,0
		c-1.4,2.4-1.1,5.7-1.5,8.8C27.9,15,30.9,15,35.1,15z M67.2,15c-0.7-3.2-0.7-6.6-2.3-8.6c-0.9-1.2-6.1-1.2-6.7-0.3
		c-1.4,2.5-1.3,5.8-1.8,8.9C60.4,15,63.3,15,67.2,15z M102.6,15c-1-3.4-1.1-6.8-2.8-8.8c-1-1.2-6-1-6.6,0.1c-1.3,2.4-1,5.7-1.4,8.7
		C95.4,15,98.4,15,102.6,15z M115,118c-9.9-1.3-13.7,2.7-12.2,11.3C106.7,125.8,110.6,122.1,115,118z"/>
	<path fill-rule="evenodd" fill="#a6a9be"
  clip-rule="evenodd" d="M15,139.5c1.3,0,2.7,0,4,0c29.1,0,58.2,0,87.3,0c1.9,0,3.7-0.1,5.6-0.5
		c9.7-1.7,14.4-7.2,14.4-16.9c0-29.2,0-58.5,0-87.7c0-1.5,0-3,0-4.6c4.7,2.9,5.5,4.4,5.5,9.3c0,27.5,0,55,0,82.5
		c0,13.9-8.4,23.1-22.4,23.3c-29.2,0.3-58.5,0.2-87.7-0.1c-2.4,0-4.8-2.5-7.2-3.8C14.7,140.4,14.8,140,15,139.5z"/>
	<path fill-rule="evenodd" fill="#a6a9be"
  clip-rule="evenodd" d="M137.1,41.3c3.8,2.9,5.5,5.8,5.5,10.3c-0.3,23.5-0.3,47-0.1,70.5
		c0.2,22.5-17.1,33.1-31.8,33.3c-25.7,0.4-51.5,0.2-77.2,0c-2.4,0-4.8-2.4-7.2-3.7c0.1-0.5,0.3-0.9,0.4-1.4c1.3,0,2.5,0,3.8,0
		c25,0,50,0,75,0c3.5,0,7-0.2,10.4-1c13.3-3,21.1-12.9,21.1-26.7c0-25.5,0-51,0-76.5C137.1,44.7,137.1,43.3,137.1,41.3z"/>
	<path fill-rule="evenodd" fill="#a6a9be"
  clip-rule="evenodd" d="M83.2,115.3c-3.3,0-6.5-0.1-9.7,0c-2.8,0.1-4.2-1.2-4.2-4c0-4.1,0-8.2,0-12.4
		c0-2.7,1.3-3.9,3.9-3.9c6.6,0,13.2,0,19.9,0c2.9,0,4,1.4,4,4.2c-0.1,4,0,8,0,12c0,2.8-1.2,4.1-4.1,4.1
		C89.7,115.2,86.4,115.3,83.2,115.3z"/>
	<path fill-rule="evenodd" fill="#a6a9be"
  clip-rule="evenodd" d="M37.6,115.3c-3.2,0-6.5-0.1-9.7,0c-2.8,0.1-4.2-1-4.1-3.9c0.1-4.1,0.1-8.2,0-12.3
		c-0.1-2.7,1.1-4,3.7-4c6.7,0,13.4,0,20.2,0c2.6,0,3.9,1.4,3.9,3.9c0,4.1,0,8.2,0,12.3c0,2.8-1.4,4-4.2,4
		C44,115.2,40.8,115.3,37.6,115.3z"/>
	<path fill-rule="evenodd" fill="#a6a9be"
  clip-rule="evenodd" d="M83.3,55c-3.4,0-6.7,0-10.1,0c-2.6,0-3.9-1.2-3.9-3.8c0-4.2,0-8.5,0-12.7
		c0-2.6,1.4-3.8,4-3.8c6.6,0.1,13.2,0.1,19.8,0c2.7,0,3.9,1.2,3.9,3.8c0,4.2,0,8.5,0,12.7c0,2.7-1.4,3.8-4,3.7
		C89.8,55,86.5,55,83.3,55z"/>
	<path fill-rule="evenodd" fill="#a6a9be"
  clip-rule="evenodd" d="M83.1,85c-3.4,0-6.7-0.1-10.1,0c-2.5,0.1-3.7-1-3.8-3.5c0-4.4,0-8.7,0-13.1
		c0-2.5,1.5-3.7,3.8-3.7c6.7-0.1,13.5,0,20.2,0c2.3,0,3.8,1.2,3.8,3.7c0,4.4,0,8.7,0,13.1c0,2.5-1.3,3.6-3.8,3.5
		C89.9,84.9,86.5,85,83.1,85z"/>
	<path fill-rule="evenodd" fill="#a6a9be"
  clip-rule="evenodd" d="M37.1,55c-3.2,0-6.5,0-9.7,0c-2.5,0-3.6-1.2-3.6-3.7c0.1-4.4,0-8.7,0-13.1
		c0-2.4,1.2-3.4,3.4-3.4c6.9,0,13.7-0.2,20.6,0.1c1.3,0.1,3.4,2,3.5,3.2c0.4,4.4,0.2,9,0.2,13.4c0,2.5-1.5,3.5-3.9,3.5
		C44,55,40.6,55,37.1,55C37.1,55,37.1,55,37.1,55z"/>
	<path fill-rule="evenodd" fill="#a6a9be"
  clip-rule="evenodd" d="M37.3,85c-3.2,0-6.5-0.1-9.7,0c-2.7,0.1-3.9-1-3.9-3.7c0.1-4.2,0.1-8.5,0-12.7
		c-0.1-2.6,1.2-3.8,3.6-3.8c6.8-0.1,13.7-0.1,20.6,0c2.4,0,3.6,1.4,3.6,3.8c0,4.2,0,8.5,0,12.7c0,2.6-1.4,3.8-4.1,3.7
		C44.1,84.9,40.7,85,37.3,85z"/>
</g>
</svg>
