<?xml version="1.0" encoding="utf-8"?>
<!-- Generator: Adobe Illustrator 18.1.1, SVG Export Plug-In . SVG Version: 6.00 Build 0)  -->
<svg version="1.1" id="Layer_3" xmlns="http://www.w3.org/2000/svg" xmlns:xlink="http://www.w3.org/1999/xlink" x="0px" y="0px"
	 viewBox="0 0 24 24.5" enable-background="new 0 0 24 24.5" xml:space="preserve">
<g>
	<path fill="#3e3e3e" d="M22.5,16c-0.8,0-1.5,0.7-1.5,1.5v4H3v-4C3,16.7,2.3,16,1.5,16S0,16.7,0,17.5V23c0,0.8,0.7,1.5,1.5,1.5h21
		c0.8,0,1.5-0.7,1.5-1.5v-5.5C24,16.7,23.3,16,22.5,16z"/>
	<path fill="#3e3e3e" d="M10.6,17c0.3,0.3,0.7,0.4,1,0.4c0.4,0,0.7-0.1,1-0.4l8.5-8.1c0.6-0.6,0.6-1.5,0-2.1c-0.6-0.6-1.5-0.6-2.1,0
		l-6,5.8v-11C13,0.7,12.3,0,11.5,0S10,0.7,10,1.5v10.8L4.4,6.9c-0.6-0.6-1.5-0.6-2.1,0C1.7,7.5,1.7,8.5,2.3,9L10.6,17z"/>
</g>
</svg>
