<?xml version="1.0" encoding="utf-8"?>
<!-- Generator: Adobe Illustrator 18.1.1, SVG Export Plug-In . SVG Version: 6.00 Build 0)  -->
<svg version="1.1" id="Layer_1" xmlns="http://www.w3.org/2000/svg" xmlns:xlink="http://www.w3.org/1999/xlink" x="0px" y="0px"
	 viewBox="0 0 536.3 130.6" enable-background="new 0 0 536.3 130.6" xml:space="preserve">
<g>
	<g>
		<path fill="#D21F35" d="M322.5,125.9c0,4.6-2.2,4.7-7.5,4.7c-5.3,0-7.5-0.1-7.5-4.7V80.1c0,0-11.9,26.3-13.5,29.1
			c-2.4,4.2-6.8,4.3-10.5,4.3c-3.8,0-8-0.1-10.5-4.3c-1.7-2.8-13.4-29.1-13.4-29.1v45.8c0,4.6-2.3,4.7-7.5,4.7
			c-5.4,0-7.5-0.1-7.5-4.7V62c0-4.6,0-4.7,5.4-4.7c6,0,10.2,0.1,12.7,4.3c1,1.7,19.7,38.9,20.8,40.8c1.2-1.9,18.3-36.7,20.8-40.8
			c2.4-4.2,6.8-4.3,12.8-4.3c5.3,0,5.4,0.1,5.4,4.7V125.9z"/>
		<path fill="#474D4E" d="M135.2,113.7c0,0-3.3,10.7-3.7,12.1c-1.1,4.6-5.4,4.7-10.8,4.7c-5.2,0-5.4-0.2-4.4-4.7
			c1.4-5.7,15.3-59.6,16.4-64c1-4.5,1.3-4.6,7.9-4.6c0.7,0,8.6,0,9.4,0c6.5,0,6.7,0.1,7.8,4.6c1.1,4.5,15.3,58.8,16.5,64
			c1,4.4,0.7,4.7-4.5,4.7c-5.4,0-9.6-0.1-10.8-4.7c-0.3-1.4-3.8-12.1-3.8-12.1H135.2z M153.7,101.4l-9.8-36.9h2.8l-9.8,36.9H153.7z"
			/>
		<path fill="#474D4E" d="M208.2,130.6h-18.8c-5.3,0-6.5-1.2-6.5-5.8V63c0-4.6,1.1-5.8,6.5-5.8h18.8c21,0,28.3,7.5,28.3,36.7
			C236.5,123.1,229.4,130.6,208.2,130.6z M195.9,70.5v47h12.3c8.1,0,12.7-1.5,12.7-23.5c0.1-22-3.9-23.5-12.7-23.5H195.9z"/>
		<path fill="#D21F35" d="M347.4,125.9c0,4.6-2.2,4.7-7.5,4.7c-5.3,0-7.5-0.1-7.5-4.7V62c0-4.6,2.2-4.7,7.5-4.7
			c5.3,0,7.5,0.1,7.5,4.7V125.9z"/>
		<path fill="#D21F35" d="M518.9,125.9c-2-3.3-11.5-17.1-14.8-22.6h-9l0,22.6c0,4.6-2.2,4.7-7.5,4.7c-5.3,0-7.5-0.1-7.5-4.7l0-63.9
			c0-4.6,0.1-4.7,5.4-4.7h23c17.2,0,24,5.6,24,22c0,12.6-3.9,20.7-13.6,22.6c1.8,3.1,14.1,21.3,15.9,24c2.5,3.9,2.2,4.7-3.1,4.7
			C525.9,130.6,521.6,130.4,518.9,125.9z M495.1,90.9h14.2c6.2,0,7.8-4.6,7.8-11.6c0-5.1-1.8-9.6-9.5-9.7h-12.4V90.9z"/>
		<path fill="#D21F35" d="M465.1,57.3c6,0,6.1,0.1,6.1,4.5c0,4.4-0.1,8.7-6.1,8.7l-25,0v16.2l22.5,0c6,0,6.1,2.2,6.1,6.2
			c0,4-0.1,6.2-6.1,6.2l-22.5,0l0,18.3h26.4c6.1,0,6.2,4.3,6.2,8.7c0,4.4-0.1,4.5-6.2,4.5l-36,0c-5.3,0-5.4-0.1-5.4-4.7l0-63.9
			c0-4.6,0.1-4.7,5.4-4.7L465.1,57.3z"/>
		<g>
			<path fill="#D21F35" d="M399.9,125.9c-2.1-3.6-17.9-28.8-17.9-28.8h8c0,0-15.4,24.7-17.9,28.8c-2.9,4.5-7.2,4.7-13.4,4.7
				c-5.6,0-5.9-0.7-3.3-4.7c2.4-3.7,21.7-34,21.7-34S359.5,65.9,357,62.2c-2.7-4.2-2.3-4.8,2.8-4.8c6.4,0,10.8,0.3,13.8,4.8
				C376.3,66.2,390,86,390,86h-8c0,0,14.1-20.4,16.5-23.8c3-4.5,7.4-4.8,13.7-4.8c5.2,0,5.7,0.7,2.9,4.8c-2.7,4-20.2,29.7-20.2,29.7
				s19.1,30.1,21.5,34c2.5,4.1,2.3,4.7-3.2,4.7C407.1,130.6,402.7,130.4,399.9,125.9z"/>
		</g>
	</g>
	<g>
		<path fill="#D21F35" d="M107.1,38.4c-1-3-1.8-5.2-2.7-6.8c-1.3-2.1-3.1-3.2-5.4-3.2c-2.4,0-5.2,1.1-10.3,3l-25.1,12l3-28
			c0.2-7.6,0.2-11-2-13.3C62.3,0,59.2,0,54.3,0c-5,0-8.2,0-10.4,2.2c-2.3,2.4-2.1,5.8-1.8,13.3l3.2,27.9L20,31.5
			c-4.7-1.7-7.7-2.8-10.1-2.8c-2.3,0-4.1,1-5.4,3c-0.9,1.5-1.6,3.4-2.7,6.5c-1.6,5.1-2.5,7.9-1.2,10.5c1.5,2.8,4.8,3.8,12.1,6
			l27.8,4.7L21.1,80.7c-4.6,5.8-6.7,8.4-6.3,11.6c0.4,2.9,2.8,4.7,7.1,7.8c3.7,2.7,6.1,4.5,8.8,4.5c3.8,0,6-3.4,10-9.6l13.6-24.7
			L68.2,95c4.2,6.1,6.4,9.5,10.2,9.5c2.6,0,5-1.8,8.6-4.5c4.3-3.1,6.7-4.9,7.1-7.8c0.4-3.1-1.7-5.8-6.3-11.6L68.1,59.4l28.1-4.7
			c7.3-2.2,10.7-3.2,12.1-6C109.7,46.1,108.7,43.2,107.1,38.4z"/>
	</g>
</g>
<rect x="4010.5" y="1607" fill="none" width="58.3" height="34.1"/>
<text transform="matrix(1 0 0 1 4010.4863 1638.7316)" fill="#474D4E" font-family="'PFSquareSansPro-Regular'" font-size="44.9608">.KZ</text>
</svg>
