<?xml version="1.0" encoding="utf-8"?>
<!-- Generator: Adobe Illustrator 18.1.1, SVG Export Plug-In . SVG Version: 6.00 Build 0)  -->
<svg version="1.1" id="Layer_1" xmlns="http://www.w3.org/2000/svg" xmlns:xlink="http://www.w3.org/1999/xlink" x="0px" y="0px"
	 viewBox="0 0 605.049 130.608" enable-background="new 0 0 605.049 130.608" xml:space="preserve">
<g>
	<g>
		<path fill="#B42437" d="M322.54,125.886c0,4.61-2.191,4.714-7.528,4.714c-5.338,0-7.53-0.104-7.53-4.714V80.119
			c0,0-11.857,26.3-13.533,29.123c-2.405,4.188-6.796,4.292-10.458,4.292c-3.765,0-8.049-0.104-10.455-4.292
			c-1.674-2.822-13.428-29.123-13.428-29.123v45.767c0,4.61-2.291,4.714-7.529,4.714c-5.439,0-7.529-0.104-7.529-4.714V62.031
			c0-4.612,0-4.715,5.441-4.715c5.967,0,10.249,0.104,12.658,4.292c1.045,1.682,19.693,38.941,20.842,40.834
			c1.154-1.894,18.331-36.747,20.841-40.834c2.412-4.189,6.799-4.292,12.767-4.292c5.338,0,5.442,0.104,5.442,4.715V125.886z"/>
		<path fill="#4A4E4F" d="M135.17,113.74c0,0-3.339,10.681-3.662,12.146c-1.148,4.61-5.429,4.714-10.766,4.714
			c-5.238,0-5.445-0.207-4.4-4.714c1.358-5.657,15.283-59.565,16.436-63.968c1.05-4.499,1.256-4.603,7.853-4.603
			c0.73,0,8.582,0,9.417,0c6.494,0,6.707,0.104,7.754,4.603c1.148,4.507,15.285,58.841,16.543,63.968
			c1.041,4.398,0.727,4.714-4.504,4.714c-5.443,0-9.617-0.104-10.771-4.714c-0.314-1.361-3.768-12.146-3.768-12.146H135.17z
			 M153.731,101.4l-9.837-36.859h2.797l-9.838,36.859H153.731z"/>
		<path fill="#4A4E4F" d="M208.195,130.6h-18.76c-5.34,0-6.486-1.15-6.486-5.76V63.024c0-4.613,1.146-5.757,6.486-5.757h18.76
			c21.05,0,28.279,7.549,28.279,36.665C236.474,123.056,229.353,130.6,208.195,130.6z M195.931,70.454v46.957h12.264
			c8.093,0,12.688-1.478,12.688-23.479c0.103-21.998-3.94-23.478-12.688-23.478H195.931z"/>
		<path fill="#B42437" d="M347.409,125.886c0,4.61-2.191,4.714-7.523,4.714c-5.349,0-7.544-0.104-7.544-4.714V62.008
			c0-4.609,2.195-4.717,7.544-4.717c5.332,0,7.523,0.108,7.523,4.717V125.886z"/>
		<path fill="#B42437" d="M518.914,125.886c-1.995-3.35-11.518-17.075-14.759-22.62h-9.027l-0.013,22.62
			c0,4.603-2.189,4.705-7.529,4.705c-5.338,0-7.534-0.107-7.529-4.709l0.013-63.862c0-4.609,0.102-4.708,5.44-4.708h23.032
			c17.172,0.004,23.972,5.553,23.972,21.992c0,12.562-3.878,20.721-13.618,22.602c1.791,3.143,14.139,21.263,15.916,23.986
			c2.512,3.873,2.195,4.709-3.143,4.709C525.909,130.6,521.631,130.393,518.914,125.886z M495.128,90.924h14.15
			c6.206,0,7.755-4.589,7.755-11.621c0-5.106-1.817-9.647-9.539-9.651h-12.366V90.924z"/>
		<path fill="#B42437" d="M465.051,57.315c5.968,0,6.071,0.112,6.071,4.503c0,4.395-0.108,8.675-6.071,8.675l-25.035-0.003v16.247
			l22.517,0.004c5.975,0,6.069,2.189,6.069,6.171c0,3.977-0.102,6.17-6.069,6.17l-22.523-0.009l-0.004,18.343h26.398
			c6.069,0,6.173,4.291,6.173,8.683c0,4.397-0.104,4.501-6.177,4.501l-36.014-0.009c-5.338,0-5.446-0.103-5.446-4.709l0.011-63.862
			c0.007-4.609,0.108-4.708,5.442-4.708L465.051,57.315z"/>
		<g>
			<path fill="#B42437" d="M399.88,125.899c-2.089-3.564-17.89-28.765-17.89-28.765h8.04c0,0-15.378,24.688-17.885,28.765
				c-2.933,4.502-7.213,4.709-13.376,4.709c-5.555,0-5.867-0.734-3.252-4.709c2.407-3.667,21.655-33.996,21.655-33.996
				s-17.681-26.05-20.194-29.709c-2.716-4.19-2.299-4.814,2.831-4.814c6.381,0,10.763,0.315,13.797,4.814
				c2.716,3.977,16.424,23.846,16.424,23.846h-8.04c0,0,14.125-20.397,16.532-23.846c3.039-4.499,7.422-4.814,13.693-4.814
				c5.229,0,5.65,0.727,2.928,4.814c-2.718,3.977-20.189,29.709-20.189,29.709s19.148,30.122,21.549,33.996
				c2.512,4.076,2.303,4.709-3.238,4.709C407.092,130.608,402.712,130.401,399.88,125.899z"/>
		</g>
	</g>
	<g>
		<path fill="#B42437" d="M107.112,38.445c-1.036-3.022-1.786-5.206-2.737-6.769c-1.314-2.146-3.086-3.192-5.418-3.192
			c-2.385,0-5.207,1.067-10.315,3.016l-25.107,11.97l2.957-27.952c0.168-7.561,0.245-11.014-2.035-13.343
			C62.331,0,59.153,0,54.342,0c-4.963,0-8.242,0-10.37,2.228c-2.26,2.36-2.112,5.804-1.775,13.337l3.193,27.905L20.021,31.493
			c-4.656-1.704-7.738-2.83-10.147-2.83c-2.32,0-4.08,0.997-5.385,3.042c-0.949,1.497-1.634,3.447-2.654,6.51
			c-1.64,5.066-2.541,7.864-1.152,10.49c1.5,2.846,4.824,3.832,12.105,5.984l27.834,4.735l-19.5,21.233
			c-4.617,5.776-6.727,8.421-6.303,11.564c0.402,2.946,2.795,4.68,7.145,7.823c3.699,2.68,6.141,4.455,8.783,4.455
			c3.826-0.007,6.039-3.404,10.043-9.567l13.57-24.729l13.836,24.759c4.153,6.146,6.445,9.537,10.223,9.537
			c2.645,0,5.018-1.78,8.598-4.462c4.336-3.143,6.725-4.879,7.125-7.816c0.424-3.148-1.685-5.787-6.311-11.568l-19.73-21.229
			l28.058-4.727c7.32-2.168,10.665-3.153,12.144-5.991C109.662,46.098,108.705,43.23,107.112,38.445z"/>
	</g>
</g>
<rect x="536.562" y="59.88" fill="none" width="68.487" height="34.114"/>
<text transform="matrix(1 0 0 1 536.5615 91.8017)" fill="#4A4E4F" font-family="'PFSquareSansPro-Regular'" font-size="44.9608">.KZ</text>
</svg>
