<?xml version="1.0" encoding="utf-8"?>
<!-- Generator: Adobe Illustrator 18.1.1, SVG Export Plug-In . SVG Version: 6.00 Build 0)  -->
<svg version="1.1" id="Layer_1" xmlns="http://www.w3.org/2000/svg" xmlns:xlink="http://www.w3.org/1999/xlink" x="0px" y="0px"
	 viewBox="0 0 351 155.8" enable-background="new 0 0 351 155.8" xml:space="preserve">
<path fill="#00A7DD" d="M351,49.6c0-11.1-9-20.1-20.1-20.1c-5.4,0-10.2,2.1-13.8,5.6c-8.3-5.7-18.3-9-29-9c-11,0-21.3,3.5-29.6,9.4
	c-3.7-3-8.5-4.8-13.7-4.8c-3.6,0-6.9,0.9-9.9,2.4c-7.8-13.1-22.1-21.9-38.5-21.9c-14.1,0-26.7,6.6-35,16.8c-9.3-6-20.4-9.6-32.3-9.6
	c-4.4,0-8.7,0.5-12.8,1.4C114,8.5,104.1,0,92.2,0C78.7,0,67.7,11,67.7,24.5c0,0.6,0,1.1,0.1,1.6c-2.6-0.4-5.2-0.6-7.9-0.6
	c-6.9,0-13.5,1.4-19.5,3.8C36.5,27.2,32,26,27.3,26C12.2,26,0,38.2,0,53.3C0,61.1,3.2,68.1,8.4,73c-0.1,1.4-0.2,2.7-0.2,4.1
	c0,28.5,23.1,51.6,51.6,51.6c10.4,0,20.1-3.1,28.3-8.4c9.3,8.9,21.6,14.8,35.2,16.1c4.3,11.3,15.3,19.3,28.1,19.3
	c12.1,0,22.6-7.2,27.4-17.5c5.3,6.9,13.6,11.3,23,11.3c13,0,24-8.5,27.6-20.3c1.8,0.3,3.6,0.4,5.5,0.4c9.5,0,18-3.9,24.1-10.3
	c8.2,5.7,18.2,9,29,9c28.3,0,51.3-23,51.3-51.3c0-3.1-0.3-6.1-0.8-9.1C345.8,65.2,351,58,351,49.6z"/>
<path fill-rule="evenodd" clip-rule="evenodd" fill="#FFFFFF" d="M135.3,53.9c-0.6-1.8-0.9-3.5-0.9-4.9c0-2.2,0.9-4.1,2.8-5.6
	c1.9-1.5,3.8-2.3,5.9-2.3c2.2,0,4.1,0.6,5.7,1.7c1.6,1.1,2.8,2.7,3.5,4.8l14.8,43l11.4-43c0.8-2.1,2-3.7,3.6-4.8
	c1.6-1.1,3.5-1.7,5.7-1.7c2.1,0,4.1,0.8,5.9,2.3c1.9,1.5,2.8,3.4,2.8,5.7c0,1.8-0.3,3.4-0.9,4.9l-26.2,69.8c0,0-2.9,10.4-16.9,11
	c0,0-11.7,1.3-11.7-8.3c0,0-1.3-9.7,11.9-7.6c0,0,6.6-1.6,4.3-7L135.3,53.9L135.3,53.9z"/>
<path fill-rule="evenodd" clip-rule="evenodd" fill="#FFFFFF" d="M82.1,55.4c0,2-0.8,3.7-2.5,5.2c-1.7,1.5-3.7,2.3-6.1,2.3
	c-1.1,0-3.2-0.6-6.3-1.7c-3.1-1.1-5.5-1.9-7.2-2.5c-1.7-0.5-3.5-0.8-5.6-0.8c-2,0-3.7,0.4-5.1,1.2c-1.4,0.8-2.1,2-2.1,3.5
	c0,1.7,2.1,3.3,6.3,4.7c4.2,1.5,8.7,3,13.4,4.5c4.7,1.6,8.7,3.6,12.1,6.3c3.4,2.6,5,6.2,5,10.6c0,3.8-1.3,7.2-3.8,10.3
	c-2.5,3.1-6.1,5.5-10.7,7.2c-4.6,1.7-9.8,2.6-15.7,2.6c-4.2,0-8.6-0.6-13.2-1.7c-4.6-1.2-8.5-2.8-11.7-4.8c-3.2-2.1-4.8-4.3-4.8-6.7
	c0-1,0.4-2,1.1-3.2c0.7-1.2,1.8-2.2,3.3-3.1c1.4-0.9,3-1.3,4.7-1.3c1.9,0,3.6,0.2,5,0.7c1.4,0.5,3.3,1.2,5.5,2.2
	c2.2,1,4.2,1.7,5.9,2.2c1.7,0.5,3.6,0.7,5.6,0.7c3.1,0,5.3-0.4,6.5-1.2c1.2-0.8,1.8-2,1.8-3.8c0-1.6-2.1-3.2-6.3-4.6
	c-4.2-1.4-8.7-2.9-13.5-4.6c-4.8-1.6-8.9-3.8-12.2-6.4c-3.3-2.7-4.9-6.2-4.9-10.6c0-3.9,1.2-7.4,3.7-10.4c2.4-3,5.8-5.3,10.2-7
	C45.1,43.8,50,43,55.6,43c3.9,0,7.8,0.5,11.9,1.4c4,0.9,7.5,2.3,10.3,4.2C80.6,50.5,82.1,52.7,82.1,55.4L82.1,55.4z"/>
<path fill-rule="evenodd" clip-rule="evenodd" fill="#FFFFFF" d="M84.3,100.4V27.2c0-2.8,0.9-5.1,2.6-6.9c1.7-1.8,3.9-2.6,6.6-2.6
	c1.8,0,3.4,0.4,4.8,1.2c1.4,0.8,2.5,1.9,3.3,3.4c0.8,1.5,1.2,3.1,1.2,4.9v39.9l18.4-20.9c2.8-2.4,5.6-3.6,8.4-3.6
	c2.2,0,4.1,0.8,5.6,2.4c1.5,1.6,2.3,3.3,2.3,5.3c0,2.5-1.2,4.8-3.6,6.8l-11.3,13.5l18.4,26.3c1.5,1.6,2.3,3.5,2.3,5.6
	c0,2.3-0.8,4.2-2.5,5.8c-1.7,1.6-3.7,2.4-6.2,2.4c-1.6,0-3-0.4-4.4-1.2c-1.3-0.8-2.8-2.2-4.5-4l-16.6-23.6l-6.1,4.6l-0.1,14
	c0,1.8-0.4,3.5-1.2,5c-0.8,1.5-1.9,2.6-3.3,3.4c-1.4,0.8-3,1.2-4.8,1.2c-2.8,0-5-0.9-6.7-2.6C85.1,105.5,84.3,103.2,84.3,100.4
	L84.3,100.4z"/>
<path fill-rule="evenodd" clip-rule="evenodd" fill="#FFFFFF" d="M193.4,124.9V52.1c0-3,0.8-5.3,2.5-7.1c1.7-1.7,3.8-2.6,6.6-2.6
	c4.8,0,7.9,2.4,9.1,7.3c1.7-2.6,4.1-4.6,7.2-5.9c3.1-1.4,6.5-2,10-2c6.2,0,11.6,1.6,16,4.9c4.4,3.3,7.7,7.6,10,12.9
	c2.2,5.3,3.4,10.9,3.4,16.8c0,5.6-1.2,10.9-3.7,16.1c-2.5,5.1-6,9.3-10.6,12.4c-4.6,3.2-9.8,4.7-15.6,4.7c-2.9,0-5.8-0.5-8.7-1.6
	c-2.9-1-5.6-2.6-7.9-4.5v21.5c0,3-0.9,5.3-2.6,7.1c-1.7,1.8-3.9,2.7-6.6,2.7c-2.7,0-4.8-0.9-6.5-2.7
	C194.2,130.1,193.4,127.8,193.4,124.9L193.4,124.9z M211.5,75c0,4.7,1.2,9,3.7,12.7c2.5,3.7,6,5.6,10.5,5.6c4.4,0,7.9-1.8,10.4-5.4
	c2.5-3.6,3.8-7.7,3.8-12.3c0-4.5-1.3-8.6-3.8-12.3c-2.5-3.7-6-5.5-10.4-5.5c-3,0-5.6,0.8-7.8,2.5c-2.2,1.7-3.8,3.8-4.8,6.4
	C212.1,69.2,211.5,72,211.5,75L211.5,75z"/>
<path fill-rule="evenodd" clip-rule="evenodd" fill="#FFFFFF" d="M313.9,81.5h-38.7c0.6,4.2,2.5,7.3,5.6,9.4c3.2,2.1,7,3.2,11.5,3.2
	c2.8,0,5-0.4,6.7-1.1c1.7-0.7,4.2-1.9,7.2-3.5c3.1-1.6,5.3-2.4,6.6-2.4c1.2,0,2.4,0.4,3.6,1.1c1.2,0.7,2.1,1.7,2.8,2.8
	c0.7,1.1,1,2.4,1,3.7c0,2.4-1.5,4.8-4.6,7.1c-3,2.3-6.9,4.2-11.6,5.6c-4.7,1.4-9.2,2.1-13.6,2.1c-5,0-9.6-0.8-13.8-2.5
	c-4.2-1.7-7.8-4.1-10.8-7.1c-3-3.1-5.4-6.7-7-10.9c-1.6-4.1-2.4-8.6-2.4-13.4c0-4.4,0.8-8.6,2.4-12.7c1.6-4.1,3.8-7.8,6.7-10.9
	c2.9-3.2,6.4-5.7,10.4-7.5c4.1-1.8,8.4-2.8,13-2.8c4.8,0,9.2,0.9,13.2,2.8c4.1,1.9,7.5,4.4,10.4,7.5c2.9,3.1,5.1,6.6,6.7,10.3
	c1.6,3.8,2.4,7.5,2.4,11.3C321.9,78.8,319.2,81.5,313.9,81.5L313.9,81.5z M274.8,69.7h28.9c-0.3-2.5-1.1-4.8-2.3-6.9
	c-1.3-2.1-2.9-3.7-5-4.8c-2.1-1.1-4.5-1.7-7.2-1.7c-2.6,0-5,0.6-7.1,1.8c-2.1,1.2-3.7,2.8-5,4.9C275.9,65,275.1,67.3,274.8,69.7
	L274.8,69.7z"/>
<path fill="#FFFFFF" d="M324.8,45.4h3.6v-2.1h-9.7v2.1h3.6v9.9h2.5V45.4L324.8,45.4z M341.4,43.3h-3.6l-2.1,9.4h0l-2.2-9.4h-3.7v12
	h2.3v-10h0l2.2,10h2.5l2.2-10h0v10h2.3V43.3L341.4,43.3z"/>
</svg>
