<?xml version="1.0" encoding="UTF-8" standalone="no"?>
<!-- Generator: Avocode 1.1.1 - http://avocode.com -->
<svg xmlns="http://www.w3.org/2000/svg" xmlns:xlink="http://www.w3.org/1999/xlink" width="17" height="10" viewBox="0 0 17 10">
    <desc>Created with Avocode</desc>
    <path d="M 0.35 0.44 C 0.35 0.44, 0.16 0.45, 0.05 0.68 C -0.05 0.92, 0.05 1.11, 0.05 1.11 C 0.05 1.11, 2.08 6.04, 4.41 8.29 C 6.67 10.46, 9.25 9.95, 9.25 9.95 C 9.25 9.95, 9.51 9.96, 9.67 9.82 C 9.91 9.62, 9.91 9.33, 9.91 9.33 C 9.91 9.33, 9.92 8.98, 9.97 8.66 C 10.01 8.37, 10.09 8.11, 10.09 8.11 C 10.09 8.11, 10.2 7.65, 10.57 7.62 C 10.95 7.58, 11.22 7.98, 11.22 7.98 L 12.12 9.03 C 12.12 9.03, 12.47 9.5, 12.83 9.76 C 13.2 10.03, 13.67 9.95, 13.67 9.95 L 16.24 9.95 C 16.24 9.95, 16.68 9.99, 16.96 9.46 C 17.1 9.17, 16.72 8.72, 16.72 8.72 C 16.72 8.72, 16.28 8.14, 15.76 7.55 C 15.13 6.84, 14.39 6.08, 14.39 6.08 C 14.39 6.08, 14.17 5.88, 14.21 5.59 C 14.26 5.27, 14.57 4.85, 14.57 4.85 C 14.57 4.85, 15.42 3.79, 16.06 2.83 C 16.53 2.11, 16.84 1.42, 16.84 1.42 C 16.84 1.42, 17.08 0.93, 16.96 0.68 C 16.84 0.44, 16.36 0.44, 16.36 0.44 L 13.43 0.44 C 13.43 0.44, 13.21 0.44, 13.07 0.56 C 12.92 0.69, 12.83 0.93, 12.83 0.93 C 12.83 0.93, 12.65 1.6, 12.3 2.28 C 11.83 3.17, 11.16 4.12, 11.16 4.12 C 11.16 4.12, 10.75 4.87, 10.27 4.79 C 10.03 4.76, 10.03 4, 10.03 4 L 10.03 0.87 C 10.03 0.87, 9.94 0.4, 9.67 0.19 C 9.38 -0.03, 8.89 0.01, 8.89 0.01 L 6.74 0.01 C 6.74 0.01, 6.42 0.03, 6.15 0.13 C 5.92 0.21, 5.73 0.37, 5.73 0.37 C 5.73 0.37, 5.49 0.63, 5.49 0.74 C 5.49 0.85, 5.73 0.8, 5.73 0.8 C 5.73 0.8, 6.25 0.84, 6.5 1.23 C 6.65 1.46, 6.68 2.11, 6.68 2.46 C 6.7 3.44, 6.5 4.49, 6.5 4.49 C 6.5 4.49, 6.38 4.81, 6.21 4.85 C 6.02 4.9, 5.79 4.67, 5.79 4.67 C 5.79 4.67, 5.16 4.08, 4.65 3.2 C 4.2 2.42, 3.9 1.37, 3.52 0.8 C 3.24 0.4, 2.92 0.44, 2.92 0.44 L 0.35 0.44 Z" fill="#a5a4a4" />
</svg>